<?xml version="1.0" encoding="utf-8"?>
<!-- Generator: Adobe Illustrator 18.1.0, SVG Export Plug-In . SVG Version: 6.00 Build 0)  -->
<svg version="1.1" id="Layer_1" xmlns="http://www.w3.org/2000/svg" xmlns:xlink="http://www.w3.org/1999/xlink" x="0px" y="0px"
	 viewBox="-234.9 379.7 137.4 34.7" enable-background="new -234.9 379.7 137.4 34.7" xml:space="preserve">
<g>
	<path fill="#37474F" d="M-227.7,406.1v7.4h-5.7v-18l-0.3-4.7h5.1l0.3,1.9c0.9-1.4,2.4-2.4,4.6-2.4c4.5,0,6,3.2,6,8v1.2
		c0,4.8-1.6,8-6,8C-225.4,407.7-226.7,407.1-227.7,406.1z M-227.7,401.6c0.3,0.5,1.1,1.3,2.4,1.3c1.6,0,2.1-1.1,2.1-3.1v-1.2
		c0-2-0.5-3.1-2.1-3.1c-1.2,0-2.1,0.8-2.4,1.3V401.6z"/>
	<path fill="#37474F" d="M-209.5,392.3c1.1-1.1,2.6-1.9,4.7-1.9c3.9,0,5.1,2.9,5.1,5.9v11h-5.7v-10.1c0-0.8-0.2-1.9-1.7-1.9
		c-1.2,0-2.1,0.8-2.4,1.3v10.7h-5.7v-24.8h5.7V392.3z"/>
	<path fill="#37474F" d="M-197.5,399.7v-1.2c0-4.8,2.5-8,7.9-8s7.9,3.2,7.9,8v1.2c0,4.8-2.5,8-7.9,8S-197.5,404.5-197.5,399.7z
		 M-187.4,399.7v-1.2c0-2-0.7-3.1-2.2-3.1s-2.2,1.1-2.2,3.1v1.2c0,2,0.7,3.1,2.2,3.1S-187.4,401.7-187.4,399.7z"/>
	<path fill="#37474F" d="M-168.7,390.9v5h-3.9v4.8c0,1.9,0.9,2.2,2.2,2.2c0.5,0,1.3-0.1,1.4-0.2v4.7c-0.3,0.2-1.2,0.4-2.8,0.4
		c-3.9,0-6.6-1.7-6.6-6.5v-5.4h-2.5v-5h2.5v-4.7h5.7v4.7H-168.7z"/>
	<path fill="#37474F" d="M-166.9,399.7v-1.2c0-4.8,2.5-8,7.9-8c5.4,0,7.9,3.2,7.9,8v1.2c0,4.8-2.5,8-7.9,8
		C-164.4,407.7-166.9,404.5-166.9,399.7z M-156.8,399.7v-1.2c0-2-0.7-3.1-2.2-3.1c-1.5,0-2.2,1.1-2.2,3.1v1.2c0,2,0.7,3.1,2.2,3.1
		C-157.5,402.8-156.8,401.7-156.8,399.7z"/>
	<path fill="#37474F" d="M-138.8,390.5v5.8h-0.9c-1.9,0-2.9,0.6-3.3,1.1v9.9h-5.7v-11.8l-0.3-4.7h5.1l0.3,1.8c1-1.4,2.5-2.3,4.3-2.3
		C-139.1,390.4-139,390.4-138.8,390.5z"/>
	<path fill="#37474F" d="M-137.9,399.7v-1.2c0-4.8,2.5-8,7.9-8c5.4,0,7.9,3.2,7.9,8v1.2c0,4.8-2.5,8-7.9,8
		C-135.4,407.7-137.9,404.5-137.9,399.7z M-127.8,399.7v-1.2c0-2-0.7-3.1-2.2-3.1c-1.6,0-2.2,1.1-2.2,3.1v1.2c0,2,0.7,3.1,2.2,3.1
		C-128.4,402.8-127.8,401.7-127.8,399.7z"/>
	<path fill="#37474F" d="M-111.5,407.3h-7.1l-2.6-16.4h5.6l0.8,10.2l1.9-10.2h6.8l1.9,10.2l0.8-10.2h5.6l-2.6,16.4h-7.1l-1.9-10.5
		L-111.5,407.3z"/>
</g>
</svg>
