<svg xmlns="http://www.w3.org/2000/svg" viewBox="-234.9 379.7 137.4 34.7"><g fill="#37474F"><path d="M-227.7 406.1v7.4h-5.7v-18l-.3-4.7h5.1l.3 1.9c.9-1.4 2.4-2.4 4.6-2.4 4.5 0 6 3.2 6 8v1.2c0 4.8-1.6 8-6 8-1.7.2-3-.4-4-1.4zm0-4.5c.3.5 1.1 1.3 2.4 1.3 1.6 0 2.1-1.1 2.1-3.1v-1.2c0-2-.5-3.1-2.1-3.1-1.2 0-2.1.8-2.4 1.3v4.8zM-209.5 392.3c1.1-1.1 2.6-1.9 4.7-1.9 3.9 0 5.1 2.9 5.1 5.9v11h-5.7v-10.1c0-.8-.2-1.9-1.7-1.9-1.2 0-2.1.8-2.4 1.3v10.7h-5.7v-24.8h5.7v9.8zM-197.5 399.7v-1.2c0-4.8 2.5-8 7.9-8s7.9 3.2 7.9 8v1.2c0 4.8-2.5 8-7.9 8s-7.9-3.2-7.9-8zm10.1 0v-1.2c0-2-.7-3.1-2.2-3.1s-2.2 1.1-2.2 3.1v1.2c0 2 .7 3.1 2.2 3.1s2.2-1.1 2.2-3.1zM-168.7 390.9v5h-3.9v4.8c0 1.9.9 2.2 2.2 2.2.5 0 1.3-.1 1.4-.2v4.7c-.3.2-1.2.4-2.8.4-3.9 0-6.6-1.7-6.6-6.5v-5.4h-2.5v-5h2.5v-4.7h5.7v4.7h4zM-166.9 399.7v-1.2c0-4.8 2.5-8 7.9-8s7.9 3.2 7.9 8v1.2c0 4.8-2.5 8-7.9 8s-7.9-3.2-7.9-8zm10.1 0v-1.2c0-2-.7-3.1-2.2-3.1-1.5 0-2.2 1.1-2.2 3.1v1.2c0 2 .7 3.1 2.2 3.1 1.5 0 2.2-1.1 2.2-3.1zM-138.8 390.5v5.8h-.9c-1.9 0-2.9.6-3.3 1.1v9.9h-5.7v-11.8l-.3-4.7h5.1l.3 1.8c1-1.4 2.5-2.3 4.3-2.3.2.1.3.1.5.2zM-137.9 399.7v-1.2c0-4.8 2.5-8 7.9-8s7.9 3.2 7.9 8v1.2c0 4.8-2.5 8-7.9 8s-7.9-3.2-7.9-8zm10.1 0v-1.2c0-2-.7-3.1-2.2-3.1-1.6 0-2.2 1.1-2.2 3.1v1.2c0 2 .7 3.1 2.2 3.1 1.6 0 2.2-1.1 2.2-3.1zM-111.5 407.3h-7.1l-2.6-16.4h5.6l.8 10.2 1.9-10.2h6.8l1.9 10.2.8-10.2h5.6l-2.6 16.4h-7.1l-1.9-10.5-2.1 10.5z"/></g></svg>